<svg xmlns="http://www.w3.org/2000/svg"  viewBox="0 0 100 100" width="50px" height="50px"><path fill="#ee3e54" d="M13,27c-1.105,0-2,0.895-2,2s0.895,2,2,2s2-0.895,2-2S14.105,27,13,27z"/><path fill="#f1bc19" d="M77,12c-0.552,0-1,0.448-1,1s0.448,1,1,1s1-0.448,1-1S77.552,12,77,12z"/><path fill="#fce0a2" d="M50,13c-20.435,0-37,16.565-37,37s16.565,37,37,37s37-16.565,37-37S70.435,13,50,13z"/><path fill="#f1bc19" d="M83,11c-2.209,0-4,1.791-4,4s1.791,4,4,4s4-1.791,4-4S85.209,11,83,11z"/><path fill="#ee3e54" d="M87,22c-1.105,0-2,0.895-2,2s0.895,2,2,2s2-0.895,2-2S88.105,22,87,22z"/><path fill="#fbcd59" d="M81,74c-1.105,0-2,0.895-2,2s0.895,2,2,2s2-0.895,2-2S82.105,74,81,74z M15,59c-2.209,0-4,1.791-4,4	c0,2.209,1.791,4,4,4s4-1.791,4-4C19,60.791,17.209,59,15,59z"/><path fill="#ee3e54" d="M25,85c-1.105,0-2,0.895-2,2s0.895,2,2,2s2-0.895,2-2S26.105,85,25,85z"/><path fill="#fff" d="M18.5,51c-1.381,0-2.5,1.119-2.5,2.5s1.119,2.5,2.5,2.5s2.5-1.119,2.5-2.5S19.881,51,18.5,51z"/><path fill="#f1bc19" d="M21,66c-0.552,0-1,0.448-1,1s0.448,1,1,1s1-0.448,1-1S21.552,66,21,66z"/><path fill="#fff" d="M80,33c-0.552,0-1,0.448-1,1s0.448,1,1,1s1-0.448,1-1S80.552,33,80,33z"/><path fill="#1fc648" d="M28.989,64.011V35.989c0-3.866,3.134-7,7-7h28.023c3.866,0,7,3.134,7,7v28.023c0,3.866-3.134,7-7,7 H35.989C32.123,71.011,28.989,67.877,28.989,64.011z"/><path fill="#472b29" d="M64,29.4c3.639,0,6.6,2.961,6.6,6.6v28c0,3.639-2.961,6.6-6.6,6.6H36c-3.639,0-6.6-2.961-6.6-6.6V36 c0-3.639,2.961-6.6,6.6-6.6H64 M64,28H36c-4.418,0-8,3.582-8,8v28c0,4.418,3.582,8,8,8h28c4.418,0,8-3.582,8-8V36 C72,31.582,68.418,28,64,28L64,28z"/><path fill="#472b29" d="M64,68.375H36c-2.413,0-4.375-1.962-4.375-4.375V36c0-2.413,1.962-4.375,4.375-4.375h28 c2.413,0,4.375,1.962,4.375,4.375v3.625C68.375,39.832,68.207,40,68,40s-0.375-0.168-0.375-0.375V36 c0-1.999-1.626-3.625-3.625-3.625H36c-1.999,0-3.625,1.626-3.625,3.625v28c0,1.999,1.626,3.625,3.625,3.625h28 c1.999,0,3.625-1.626,3.625-3.625V47.25c0-0.207,0.168-0.375,0.375-0.375s0.375,0.168,0.375,0.375V64 C68.375,66.413,66.413,68.375,64,68.375z"/><path fill="#472b29" d="M68,45c-0.207,0-0.375-0.168-0.375-0.375v-3.25C67.625,41.168,67.793,41,68,41 s0.375,0.168,0.375,0.375v3.25C68.375,44.832,68.207,45,68,45z"/><path fill="#472b29" d="M58.013,71.281c-0.027,0-0.056-0.007-0.08-0.023c-0.07-0.044-0.091-0.137-0.047-0.207l1.962-3.106 c0.044-0.07,0.138-0.091,0.207-0.047c0.07,0.044,0.091,0.137,0.047,0.207l-1.962,3.106C58.112,71.257,58.063,71.281,58.013,71.281 z"/><path fill="#472b29" d="M57.013,71.281c-0.027,0-0.056-0.007-0.08-0.023c-0.07-0.044-0.091-0.137-0.047-0.207l1.962-3.106 c0.044-0.07,0.139-0.091,0.207-0.047c0.07,0.044,0.091,0.137,0.047,0.207l-1.962,3.106C57.112,71.257,57.063,71.281,57.013,71.281 z"/><path fill="#472b29" d="M56.013,71.281c-0.027,0-0.056-0.007-0.08-0.023c-0.07-0.044-0.091-0.137-0.047-0.207l1.962-3.106 c0.044-0.07,0.139-0.091,0.207-0.047c0.07,0.044,0.091,0.137,0.047,0.207l-1.962,3.106C56.112,71.257,56.063,71.281,56.013,71.281 z"/><path fill="#472b29" d="M55.013,71.281c-0.027,0-0.056-0.007-0.08-0.023c-0.07-0.044-0.091-0.137-0.047-0.207l1.962-3.106 c0.044-0.07,0.139-0.091,0.207-0.047c0.07,0.044,0.091,0.137,0.047,0.207l-1.962,3.106C55.112,71.257,55.063,71.281,55.013,71.281 z"/><path fill="#472b29" d="M54.013,71.281c-0.027,0-0.056-0.007-0.08-0.023c-0.07-0.044-0.091-0.137-0.047-0.207l1.962-3.106 c0.044-0.07,0.139-0.091,0.207-0.047c0.07,0.044,0.091,0.137,0.047,0.207l-1.962,3.106C54.112,71.257,54.063,71.281,54.013,71.281 z"/><path fill="#472b29" d="M53.013,71.281c-0.027,0-0.056-0.007-0.08-0.023c-0.07-0.044-0.091-0.137-0.047-0.207l1.962-3.106 c0.044-0.07,0.138-0.091,0.207-0.047c0.07,0.044,0.091,0.137,0.047,0.207l-1.962,3.106C53.112,71.257,53.063,71.281,53.013,71.281 z"/><path fill="#472b29" d="M52.013,71.281c-0.027,0-0.056-0.007-0.08-0.023c-0.07-0.044-0.091-0.137-0.047-0.207l1.297-2.053 c0.044-0.07,0.138-0.091,0.207-0.047c0.07,0.044,0.091,0.137,0.047,0.207l-1.297,2.053C52.112,71.257,52.063,71.281,52.013,71.281 z"/><path fill="#472b29" d="M51.013,71.281c-0.027,0-0.056-0.007-0.08-0.023c-0.07-0.044-0.091-0.137-0.047-0.207l0.813-1.289 c0.043-0.071,0.139-0.09,0.207-0.047c0.07,0.044,0.091,0.137,0.047,0.207l-0.813,1.289C51.112,71.257,51.063,71.281,51.013,71.281 z"/><path fill="#fff" d="M42.36,36.875c0.655,0.986,1.998,3.088,2.881,4.476c0.521,0.819,0.536,1.864,0.041,2.7l-0.2,0.338 c-0.542,0.914-0.469,2.071,0.186,2.906c0.896,1.142,2.226,2.765,3.492,4.03c1.287,1.286,2.981,2.72,4.158,3.682 c0.827,0.676,1.98,0.758,2.891,0.204l0.37-0.224c0.798-0.484,1.793-0.487,2.592-0.006c1.365,0.821,3.449,2.085,4.438,2.743 c0.508,0.338,0.709,0.977,0.496,1.548c-0.637,1.714-1.678,3.561-4.974,3.561c-3.794,0-9.043-4.106-13.205-8.266l0,0 c-0.001-0.001-0.003-0.003-0.005-0.005c-0.001-0.001-0.003-0.003-0.005-0.005l0,0c-4.16-4.162-8.281-9.198-8.281-13.085 c0-3.536,1.862-4.457,3.577-5.095C41.383,36.166,42.022,36.367,42.36,36.875z"/><path fill="#472b29" d="M49,58.024c-0.057,0-0.114-0.02-0.161-0.059c-0.662-0.559-1.339-1.161-2.01-1.789 c-0.101-0.094-0.106-0.252-0.012-0.354c0.094-0.102,0.254-0.105,0.354-0.012c0.665,0.622,1.335,1.219,1.99,1.772 c0.105,0.089,0.119,0.247,0.03,0.352C49.142,57.994,49.071,58.024,49,58.024z"/><path fill="#472b29" d="M58.73,63.083c-2.088,0-4.739-1.184-7.88-3.518c-0.11-0.083-0.134-0.239-0.051-0.35 c0.083-0.112,0.239-0.133,0.35-0.052c3.052,2.269,5.603,3.419,7.581,3.419c3.056,0,4.084-1.633,4.739-3.398 c0.174-0.466,0.01-0.982-0.399-1.253c-0.959-0.638-2.938-1.841-4.429-2.737c-0.721-0.434-1.614-0.431-2.333,0.006l-0.37,0.224 c-0.997,0.604-2.275,0.515-3.179-0.225c-1.192-0.975-2.885-2.408-4.177-3.699c-1.277-1.278-2.614-2.909-3.511-4.052 c-0.714-0.909-0.797-2.19-0.205-3.188l0.2-0.337c0.45-0.76,0.436-1.694-0.037-2.438c-0.961-1.511-2.241-3.513-2.879-4.472 c-0.271-0.409-0.786-0.575-1.253-0.4c-1.727,0.642-3.413,1.546-3.413,4.86c0,3.117,2.762,7.46,8.208,12.908 c0.098,0.098,0.098,0.256,0,0.354s-0.256,0.098-0.354,0c-5.544-5.545-8.354-10.007-8.354-13.262c0-3.634,1.93-4.656,3.739-5.329 c0.683-0.253,1.442-0.011,1.843,0.592c0.641,0.962,1.922,2.967,2.885,4.48c0.574,0.904,0.592,2.039,0.045,2.961l-0.2,0.337 c-0.486,0.822-0.419,1.876,0.168,2.625c0.889,1.132,2.212,2.746,3.472,4.007c1.277,1.276,2.956,2.698,4.14,3.666 c0.739,0.606,1.785,0.682,2.603,0.184l0.37-0.224c0.879-0.533,1.97-0.536,2.851-0.007c1.495,0.899,3.48,2.107,4.448,2.75 c0.603,0.4,0.846,1.159,0.591,1.844C63.255,61.201,62.101,63.083,58.73,63.083z"/><path fill="#472b29" d="M45.52,54.81c-0.069,0-0.13-0.03-0.18-0.08c-0.05-0.04-0.07-0.11-0.07-0.17 c0-0.07,0.021-0.13,0.07-0.18c0.07-0.07,0.18-0.09,0.27-0.05c0.03,0.01,0.061,0.03,0.08,0.05c0.051,0.05,0.08,0.11,0.08,0.18 c0,0.06-0.029,0.13-0.08,0.17C45.649,54.78,45.58,54.81,45.52,54.81z"/><path fill="#472b29" d="M45.518,54.812c-0.08,0-0.157-0.038-0.205-0.11l0.003-0.001c-0.06-0.113-0.035-0.265,0.072-0.337 c0.116-0.077,0.26-0.059,0.337,0.056c0.076,0.115,0.048,0.272-0.067,0.349C45.614,54.797,45.565,54.812,45.518,54.812z"/><path fill="#472b29" d="M45.525,54.817c-0.062,0-0.123-0.023-0.17-0.066c-0.083-0.073-0.11-0.196-0.059-0.3 c0.063-0.124,0.215-0.174,0.335-0.112c0.039,0.02,0.077,0.053,0.102,0.089c0.076,0.115,0.046,0.27-0.069,0.347 C45.621,54.804,45.573,54.817,45.525,54.817z"/><path fill="#472b29" d="M45.52,54.82c-0.06,0-0.13-0.03-0.17-0.08c-0.05-0.04-0.08-0.11-0.08-0.17 c0-0.07,0.03-0.13,0.08-0.18c0.021-0.02,0.05-0.04,0.08-0.05c0.09-0.04,0.2-0.02,0.271,0.05c0.05,0.05,0.08,0.11,0.08,0.18 c0,0.06-0.03,0.13-0.08,0.17C45.66,54.79,45.59,54.82,45.52,54.82z"/></svg>